<svg version="1.0" viewBox="0 0 808.06262 400" id="svg3" sodipodi:docname="RDATiger-EOSC.svg" width="808.06262" height="400" inkscape:version="1.3 (0e150ed6c4, 2023-07-21)" xmlns:inkscape="http://www.inkscape.org/namespaces/inkscape" xmlns:sodipodi="http://sodipodi.sourceforge.net/DTD/sodipodi-0.dtd" xmlns="http://www.w3.org/2000/svg" xmlns:svg="http://www.w3.org/2000/svg">
    <defs id="defs3"/>
    <sodipodi:namedview id="namedview3" pagecolor="#ffffff" bordercolor="#000000" borderopacity="0.25" inkscape:showpageshadow="2" inkscape:pageopacity="0.0" inkscape:pagecheckerboard="true" inkscape:deskcolor="#d1d1d1" inkscape:zoom="1.8126984" inkscape:cx="399.68039" inkscape:cy="203.28809" inkscape:window-width="2560" inkscape:window-height="1369" inkscape:window-x="-8" inkscape:window-y="-8" inkscape:window-maximized="1" inkscape:current-layer="svg3"/>
    <path d="m 68.236462,6.829811 c -79.225808,38.352016 -90.783948,97.193469 -27.73954,142.060079 8.405921,6.09428 39.087534,22.27568 41.819458,22.27568 0.630444,0 -3.572516,-2.52177 -9.351588,-5.56892 -13.764695,-7.35518 -20.384359,-11.55814 -18.387952,-11.97844 0.840592,-0.21015 7.460255,-0.94566 14.710362,-1.78626 l 13.134252,-1.47102 6.304441,3.99281 c 7.880551,4.83339 21.540175,11.87336 22.275695,11.24291 0.21015,-0.31523 -3.04715,-2.4167 -7.25011,-4.72833 -4.202962,-2.41671 -9.66681,-5.674 -12.188586,-7.35518 -4.308035,-2.94208 -4.41311,-3.15221 -2.101481,-3.67759 1.365962,-0.31522 8.0907,-0.94566 15.025587,-1.36597 14.39514,-0.73553 16.07632,-1.26089 12.81903,-3.67758 -2.10148,-1.36597 -3.78267,-1.47104 -15.44588,-0.31523 -7.25011,0.73551 -14.605291,1.68119 -16.39155,1.9964 -3.047146,0.52537 -3.992813,-0.21014 -11.873363,-7.98562 -4.623257,-4.72833 -8.510996,-8.93129 -8.510996,-9.35158 0,-1.36597 7.355182,-2.10149 20.804655,-2.10149 7.03996,0 12.819029,-0.42029 12.819029,-0.84059 0,-0.52537 -0.945665,-1.78626 -2.101479,-2.837 -1.891333,-1.68118 -3.572516,-1.78625 -19.228544,-1.15581 l -17.127065,0.84059 -3.362369,-7.2501 c -1.891332,-3.99282 -3.362369,-7.56533 -3.362369,-7.88055 0,-0.31523 7.56533,-0.94567 16.811843,-1.36597 16.811842,-0.73552 18.07273,-1.05074 15.866177,-4.51818 -0.630444,-1.15582 -3.782665,-1.15582 -16.811842,-0.31522 -8.826218,0.63044 -16.391548,1.15581 -16.916917,1.15581 -0.420297,0 -1.155814,-1.99641 -1.576111,-4.518182 -0.315222,-2.416703 -0.945665,-5.989218 -1.260889,-7.880551 l -0.525369,-3.362369 h 34.884573 v -5.2537 H 49.428213 l 0.630444,-3.992813 c 0.315222,-2.10148 0.945665,-5.673996 1.576111,-7.880551 0.840592,-3.677591 1.260888,-3.992813 3.782664,-3.467443 1.57611,0.315223 9.14144,0.840593 16.916917,1.260888 11.347994,0.525371 14.184992,0.420298 14.92051,-0.735518 2.206554,-3.467442 0.945666,-3.782663 -15.445879,-4.413109 -9.036367,-0.315221 -16.601695,-0.84059 -17.021992,-1.155813 -0.735519,-0.735518 3.362369,-9.771884 5.884145,-12.819029 1.786258,-2.206554 2.10148,-2.206554 18.387952,-1.155814 15.235732,0.84059 16.811843,0.84059 18.598102,-0.840593 1.155815,-1.05074 2.101479,-2.206556 2.101479,-2.62685 0,-0.420296 -7.460255,-1.050742 -16.49662,-1.471036 -9.14144,-0.420296 -16.811842,-0.945667 -17.127065,-1.260889 -0.315222,-0.315222 3.677592,-4.623257 8.721144,-9.561734 8.090699,-7.775478 9.666808,-8.826218 12.188586,-8.405923 1.471037,0.315222 8.826217,1.155815 16.181399,1.891333 11.03277,1.050739 13.86977,1.050739 15.97125,-0.105075 1.47104,-0.735517 2.62685,-1.786258 2.62685,-2.101479 0,-0.420297 -5.77907,-1.155815 -12.9241,-1.57611 C 101.75507,21.014803 94.399892,20.384359 92.50856,19.964063 89.041118,19.333618 89.041118,19.228545 99.548518,13.029178 105.43267,9.5617355 109.95085,6.619663 109.7407,6.4095149 109.42548,5.9892188 98.182556,11.663216 89.776636,16.496621 l -5.253703,3.047146 -14.605287,-1.57611 C 55.522506,16.391546 55.312358,16.391546 57.834135,14.500214 59.200097,13.449474 65.819759,9.7718835 72.439423,6.3044409 79.059085,2.8369985 84.102639,0 83.472194,0 82.946824,0 76.011939,3.0471465 68.236462,6.829811 Z m -1.260888,13.764696 c 7.039958,1.05074 12.81903,2.101481 12.81903,2.416703 0,0.315221 -1.576109,1.57611 -3.467443,2.836998 -1.786258,1.260888 -6.409515,5.2537 -10.19218,8.826218 L 59.305171,41.189014 47.74703,40.873792 C 41.442588,40.768717 34.297555,40.348421 32.091001,40.033199 l -4.097887,-0.735518 5.148627,-5.358774 c 6.619663,-6.724738 17.337212,-15.130658 19.333619,-15.130658 0.840591,0 7.35518,0.735518 14.500214,1.786258 z m -16.916917,25.112689 5.463849,0.630445 -2.416702,3.362367 c -1.365962,1.78626 -3.467444,5.253703 -4.728331,7.670404 l -2.206554,4.41311 -7.565329,-0.525371 C 21.898821,60.207412 15.699453,59.576966 15.699453,59.15667 c 0,-0.840591 3.257296,-6.934885 5.989221,-11.347993 l 2.62685,-4.097886 10.087105,0.735516 c 5.673997,0.315224 12.608881,0.945667 15.656028,1.260889 z M 32.826518,64.935741 c 5.673998,0.525371 10.402327,1.05074 10.612477,1.260889 0.420296,0.420297 -2.311629,14.92051 -2.837,15.235732 -0.105075,0.105075 -6.934884,0.420296 -15.130657,0.735518 L 10.445754,82.903398 V 79.01566 c 0,-2.101479 0.735518,-6.619664 1.681184,-9.876957 l 1.681185,-6.094294 4.413108,0.52537 c 2.311628,0.210148 8.931291,0.840593 14.605287,1.365962 z m 8.931291,29.525798 c 0.735519,4.097888 1.260889,7.775481 1.260889,8.300851 0,0.42029 -4.413108,1.15581 -9.666809,1.57611 -5.358775,0.42029 -12.188586,0.94566 -15.130658,1.36596 l -5.358775,0.52537 -1.155814,-6.09429 C 11.076198,96.668095 10.34068,92.36006 10.025458,90.468727 L 9.5000872,87.106358 H 40.496922 Z m 7.460257,21.224951 c 2.416702,4.09789 4.202959,7.56533 4.097885,7.6704 -0.210147,0.21015 -6.934884,0.8406 -14.920508,1.57611 l -14.710364,1.26089 -1.786258,-2.52177 c -1.891333,-2.31163 -7.250108,-12.71396 -7.250108,-13.86977 0,-0.52537 8.510997,-1.15582 22.170619,-1.47104 l 7.985625,-0.21015 z M 62.457391,133.444 c 2.942074,2.94208 7.565329,7.25011 10.297254,9.45666 3.152221,2.52177 4.623257,4.30803 3.67759,4.51818 -0.735517,0.31521 -7.145033,1.2609 -14.184992,2.31164 l -12.713957,1.78626 -6.724735,-5.35878 c -7.355182,-5.77907 -15.550955,-14.185 -15.550955,-15.86618 0,-0.63045 4.413109,-1.26089 10.297254,-1.47104 5.568921,-0.10507 12.29366,-0.42029 14.92051,-0.52537 4.518182,-0.21014 5.148627,0.10508 9.982031,5.14863 z M 294.56589,8.8262173 c 11.76829,6.5145887 13.65963,7.8805517 10.61248,7.8805517 -1.15581,0 -7.98563,0.735519 -15.13066,1.576109 l -12.92411,1.471036 -11.2429,-6.199366 c -6.19939,-3.467443 -11.66323,-6.3044409 -12.18859,-6.3044409 -0.63045,0.1050736 0.42028,0.8405922 2.10147,1.6811842 8.40592,4.4131087 16.39155,10.2972537 15.02559,11.0327717 -0.73553,0.420296 -7.67041,1.155814 -15.34081,1.576111 -7.67041,0.420296 -14.18499,1.155814 -14.50021,1.576109 -0.31522,0.52537 0.63045,1.471037 2.10148,2.101481 1.89132,0.945665 6.30443,0.735518 18.38795,-0.630444 l 15.86617,-1.786259 4.8334,3.992814 c 5.25371,4.308033 14.29008,14.184991 13.55455,14.920509 -0.21015,0.210147 -7.98563,0.735518 -17.23213,1.155814 l -16.81184,0.630445 1.89132,2.416702 1.78627,2.416701 16.70677,-1.050739 c 11.97844,-0.840591 17.02199,-0.840591 17.96765,0 0.73552,0.630445 2.83699,4.097887 4.62327,7.565329 l 3.25728,6.51459 -2.4167,0.735517 c -1.36596,0.315222 -7.88055,0.735519 -14.50021,0.735519 -13.97486,0.105075 -17.02199,0.735517 -16.60171,3.152219 0.31523,1.365963 1.89134,1.681185 9.7719,1.471036 5.25369,-0.105075 12.92409,-0.525369 17.12705,-0.84059 7.3552,-0.630446 7.56533,-0.525371 8.61608,1.996405 0.52536,1.471036 1.26089,5.043553 1.68118,7.985625 l 0.73552,5.253701 h -17.65243 c -15.55095,0 -17.4423,0.210149 -16.91691,1.681185 0.31522,0.945665 0.63044,2.101479 0.63044,2.62685 0,0.525369 7.35518,0.945665 16.81184,0.945665 h 16.81184 v 3.887739 c 0,2.206555 -0.52537,5.779071 -1.15582,7.985626 l -1.05073,3.992817 -13.86978,-0.73552 c -21.0148,-1.15582 -19.75391,-1.26089 -20.80465,1.36596 -0.8406,2.4167 -0.8406,2.4167 9.35159,2.52178 5.56892,0.10507 13.44947,0.42029 17.33721,0.84059 l 7.14503,0.63044 -3.99281,7.88055 c -2.73194,5.46385 -4.51818,7.88055 -5.77907,7.77548 -1.05074,-0.10508 -8.9313,-0.52537 -17.54736,-0.94567 -14.92051,-0.73551 -15.76109,-0.63044 -16.81184,1.36597 -0.94568,1.89133 -0.63045,2.10148 3.78267,2.73192 2.62685,0.31522 10.19218,0.63044 16.70676,0.63044 7.25012,0 11.97843,0.4203 11.97843,1.05075 0,1.26088 -14.39513,16.60169 -16.81183,17.86258 -1.05075,0.52536 -7.88055,0.21015 -17.12707,-0.73553 -12.92411,-1.47103 -15.86618,-1.47103 -18.28288,-0.31521 l -2.94207,1.36596 3.67759,0.84059 c 1.9964,0.4203 9.24652,1.05073 16.07633,1.47105 6.72474,0.4203 12.29364,1.05073 12.29364,1.57611 0,0.94566 -5.77905,4.93847 -15.23572,10.40231 -3.99281,2.41671 -6.93488,4.30805 -6.51458,4.30805 1.26089,0 11.13783,-5.14863 19.43868,-10.19219 l 7.67041,-4.62325 14.39515,1.68118 c 7.88054,0.94567 14.60528,1.89133 14.71036,2.10148 0.52536,0.52538 -20.90975,13.13425 -22.27571,13.13425 -0.52536,0 -0.73551,0.31523 -0.42028,0.63045 0.73551,0.73551 17.23213,-7.46027 26.79387,-13.3444 36.46068,-22.2757 53.90296,-52.43194 47.17823,-81.117144 -5.674,-23.956877 -28.05476,-46.968087 -62.83427,-64.4103726 -6.19935,-3.1522206 -11.66321,-5.6739969 -12.08351,-5.6739969 -0.52536,0 3.88774,2.6268503 9.56174,5.7790708 z m 22.90614,15.1306587 c 4.20296,3.362368 9.77188,8.300847 12.29367,10.927697 4.51817,4.728332 4.51817,4.833405 2.10147,5.358775 -1.36596,0.315222 -8.51099,0.735518 -15.76111,1.05074 l -13.23933,0.630443 -7.14503,-6.724736 c -3.88773,-3.782665 -8.61606,-7.880551 -10.61247,-9.246513 -1.9964,-1.365962 -3.57251,-2.731925 -3.57251,-3.047146 0,-0.315223 5.9892,-1.471036 13.44947,-2.731925 7.35517,-1.155813 13.65963,-2.206554 14.07991,-2.311629 0.4203,0 4.20296,2.626852 8.40593,6.094294 z m 22.06554,23.011209 c 1.47103,2.10148 3.6776,5.884146 4.93849,8.300847 l 2.20654,4.413108 -3.46743,0.525372 c -1.78627,0.315221 -8.9313,0.84059 -15.65605,1.155814 l -12.29365,0.630443 -2.31163,-4.518183 c -1.26089,-2.521775 -3.36236,-6.094292 -4.8334,-7.985625 -1.36596,-1.786258 -2.4167,-3.362368 -2.20655,-3.467441 0.21015,0 6.93487,-0.630446 15.02558,-1.365963 8.09069,-0.735519 15.02558,-1.471037 15.34081,-1.576111 0.4203,0 1.89133,1.681185 3.25729,3.887739 z m 10.50741,23.326431 c 0.94566,3.782665 1.78624,8.090701 1.78624,9.771884 l 0.10505,2.942072 -15.44587,-0.315222 -15.44589,-0.315221 -1.89132,-7.880551 c -0.94567,-4.308036 -1.78626,-8.195775 -1.89133,-8.510997 0,-0.630443 23.53657,-2.836997 28.36998,-2.62685 2.31162,0.105075 2.837,0.840593 4.41311,6.934885 z m 1.47103,22.48584 c -0.94567,9.246514 -2.41671,13.239324 -5.04356,13.239324 -2.94205,0 -27.52938,-2.31163 -27.94968,-2.52177 -0.10505,-0.21015 0.31522,-3.887743 1.05074,-8.300851 l 1.15582,-7.985625 11.66321,-0.420297 c 6.40951,-0.105075 13.44948,-0.420296 15.7611,-0.525369 l 4.09788,-0.210149 z m -10.40234,16.181394 6.61967,0.73552 -3.46743,6.40952 c -5.98924,11.34799 -3.6776,10.40232 -20.6996,9.03636 -8.30084,-0.73552 -15.23572,-1.36596 -15.34079,-1.57611 -0.21015,-0.21015 1.57611,-3.88774 3.99281,-8.19577 l 4.41312,-7.77548 9.03635,0.31523 c 4.93848,0.21014 11.87336,0.73551 15.44587,1.05073 z m -6.09428,20.80466 c 0.73551,0.63044 -11.03278,12.60887 -17.44228,17.65243 l -5.56893,4.41311 -14.18499,-2.10147 c -7.77548,-1.15581 -14.185,-2.41671 -14.185,-2.73194 0,-0.31522 1.57611,-1.57611 3.46745,-2.83699 1.78625,-1.26089 6.40952,-5.46385 10.19217,-9.24652 l 6.82982,-7.03995 15.23574,0.73552 c 8.4059,0.42029 15.44587,0.94566 15.65602,1.15581 z" id="path1" style="stroke-width:1.05074"/>
    <path d="m 118.56692,27.214169 c -10.61248,8.721144 -23.011214,28.475059 -26.05836,41.294088 -6.094294,25.638062 2.521777,52.747153 23.22136,72.921363 l 5.56892,5.46385 29.73596,-1.05074 c 21.01479,-0.84059 38.24693,-0.84059 59.3668,0 l 29.63088,1.05074 6.09429,-5.98921 c 16.49662,-16.07633 24.90255,-34.56936 24.90255,-54.848641 0,-20.699581 -7.88056,-38.45709 -24.16703,-54.638489 l -7.88054,-7.880551 h -116.1068 z m 18.70318,18.387954 c 16.28647,4.833405 21.54016,30.366391 8.93128,43.815864 l -2.62685,2.836998 5.35878,15.866175 5.35877,15.7611 h -9.24652 c -9.35157,0 -9.35157,0 -10.0871,-2.94207 -1.89133,-7.88055 -7.2501,-23.326429 -7.98562,-23.326429 -0.52537,0 -0.94567,5.884149 -0.94567,13.134249 v 13.13425 H 109.21533 V 44.026013 h 11.34799 c 7.03996,0 13.44948,0.630444 16.70678,1.57611 z m 52.32686,1.576111 c 10.61248,5.463848 15.65602,17.232138 15.65602,36.775905 0,20.384361 -5.14863,32.047571 -16.6017,37.406351 -4.62325,2.20655 -6.93488,2.52177 -17.12707,2.52177 H 159.65085 V 43.815864 l 12.39874,0.420296 c 10.71755,0.315222 13.02917,0.630445 17.54737,2.942074 z m 57.89577,36.775905 c 4.09788,21.645251 7.14504,39.823051 6.72474,40.243351 -0.42029,0.42029 -4.20296,0.73551 -8.51099,0.52537 l -7.77548,-0.31523 -0.94568,-7.14503 -0.84058,-7.03996 h -12.29367 l -0.73551,3.88774 c -1.78626,10.82262 -1.36596,10.29725 -9.35157,10.61248 -3.88775,0.21014 -7.46027,-0.10508 -7.98563,-0.52537 -0.63045,-0.63045 12.71395,-74.077184 14.29006,-78.91059 0.4203,-0.945666 3.04714,-1.260887 10.19217,-1.05074 l 9.77189,0.315222 z" id="path2" style="stroke-width:1.05074"/>
    <path d="m 126.02717,71.345256 c 0,6.934886 0.31522,12.608883 0.84059,12.608883 5.56893,-0.105075 8.61606,-4.518183 8.61606,-12.503809 0,-6.82981 -1.68117,-10.297254 -5.56891,-11.663215 -1.68118,-0.52537 -3.36237,-1.05074 -3.46744,-1.05074 -0.21015,0 -0.4203,5.673997 -0.4203,12.608881 z m 50.43554,12.608883 c 0,23.641651 0,24.167021 2.10147,24.167021 5.88415,0 9.45667,-9.141437 9.45667,-24.167021 0,-15.025586 -3.57252,-24.167024 -9.45667,-24.167024 -2.10147,0 -2.10147,0.525371 -2.10147,24.167024 z m 51.59134,-2.836999 c -0.73553,5.253701 -1.57611,10.71755 -1.89134,11.978437 -0.52537,2.206555 -0.10505,2.416703 3.2573,2.416703 3.25728,0 3.78266,-0.315221 3.78266,-2.416703 0,-2.731923 -2.94208,-20.804654 -3.46744,-21.330024 -0.21015,-0.210148 -0.94567,3.992812 -1.68118,9.351587 z M 566.2873,28.79028 c -11.45308,3.257295 -19.85899,10.402328 -24.90254,21.224952 -7.88057,16.916916 -7.46027,49.384786 0.73551,65.566188 3.46744,6.61966 11.34799,14.50021 18.07272,17.86258 17.12709,8.61607 42.66007,5.56893 55.26895,-6.72474 l 4.41311,-4.30803 V 82.903398 h -39.92813 v 11.558141 h 25.21777 V 106.3349 c 0,13.13425 -0.10505,13.3444 -7.3552,17.12707 -4.83339,2.4167 -19.3336,3.25729 -26.05835,1.36596 -6.93488,-1.89133 -14.81543,-9.98203 -18.07273,-18.28288 -3.25728,-8.510993 -4.20296,-30.891758 -1.68117,-42.554974 3.88773,-18.28288 15.7611,-26.898949 33.0983,-24.06195 9.87696,1.576109 15.86619,7.460255 19.4387,19.018397 0.4203,1.57611 1.78626,1.891332 7.56533,1.891332 h 7.03995 l -0.73551,-4.308034 C 616.61775,45.2869 607.79153,34.464277 597.17906,30.366391 589.08837,27.319244 574.48307,26.583726 566.2873,28.79028 Z m -167.69813,0.945667 c -0.31522,0.735518 -0.42029,3.467443 -0.21014,5.989219 l 0.31521,4.623255 17.12706,0.315223 17.02201,0.210148 v 95.617358 h 14.71036 V 40.873792 h 34.67441 V 28.264911 h -41.50423 c -34.46428,0 -41.71439,0.210147 -42.13468,1.471036 z m 101.18628,-0.735519 c -0.4203,0.315223 -0.73552,24.692394 -0.73552,54.113118 v 53.377604 h 14.71036 V 28.264911 h -6.61967 c -3.67758,0 -7.03995,0.315221 -7.35517,0.735517 z m 143.21587,53.377601 v 54.113121 h 68.29811 V 124.933 H 657.70168 V 87.106358 h 46.23257 V 74.497478 H 657.70168 V 40.873792 l 26.58374,-0.210148 26.47865,-0.315223 V 28.79028 l -33.83384,-0.315222 -33.93891,-0.210147 z m 86.16069,-0.105075 v 54.218196 h 14.71038 V 93.410799 h 24.6924 l 11.55812,21.540171 11.55814,21.54018 h 16.39156 l -2.62686,-4.51819 c -3.57251,-6.19936 -22.69598,-40.873788 -22.69598,-41.294084 0,-0.105075 2.10148,-1.471036 4.62325,-2.942072 14.50022,-8.510997 19.43869,-26.688802 11.55815,-42.34483 -3.67758,-7.145032 -8.30085,-11.03277 -16.70677,-14.184991 -5.56893,-1.996407 -9.14144,-2.311629 -29.63088,-2.731925 l -23.43151,-0.420296 z m 46.5478,-39.928126 c 5.25369,1.891332 7.98563,4.413108 10.29725,9.561736 2.41671,5.148626 2.52178,11.873363 0.4203,17.021989 -4.09788,9.771884 -9.03637,11.76829 -28.05476,11.873365 H 743.86239 V 40.873792 h 13.97485 c 8.93128,0.105075 15.34079,0.630443 17.86257,1.471036 z M 39.866479,205.84 c 0,0.73551 126.929411,1.05073 378.791811,1.05073 251.86243,0 378.79185,-0.31522 378.79185,-1.05073 0,-0.73551 -126.92942,-1.05074 -378.79185,-1.05074 -251.8624,0 -378.791811,0.31523 -378.791811,1.05074 z m 36.986052,67.24737 c -21.96047,5.77907 -28.685207,13.86976 -19.228544,23.22135 4.938478,4.93848 8.405921,5.25369 15.761102,1.47104 11.453068,-5.77906 25.743134,-5.77906 37.511421,0 7.35519,3.57252 10.9277,3.46744 15.55096,-0.84059 7.77547,-7.35519 5.98922,-13.02917 -5.674,-18.91332 -13.97484,-6.93489 -29.420725,-8.72114 -43.920939,-4.93848 z m 115.896639,-1.47104 c -1.15581,0.21015 -4.72832,0.94566 -7.88056,1.57611 -10.19216,1.9964 -22.1706,8.511 -30.2613,16.49661 -12.39874,12.18859 -18.17781,25.74314 -20.06914,46.65287 -1.15582,13.44947 -3.88774,20.27929 -11.13785,28.05476 -5.88414,6.30446 -11.55814,9.77189 -19.75392,12.18859 -3.46744,0.94567 -6.409511,2.52177 -7.039954,3.67758 -0.630444,1.05076 -1.05074,4.83342 -1.05074,8.30085 0,6.9349 2.206554,10.61248 6.199364,10.61248 4.41311,0 18.91333,-5.46386 24.90255,-9.24651 8.09069,-5.2537 17.86257,-15.86618 22.27569,-24.06196 4.30803,-8.09069 7.56532,-20.69956 7.56532,-29.10549 0,-8.40593 2.20656,-16.28647 6.51461,-23.4315 4.30802,-7.14503 9.87693,-12.08352 18.70316,-16.39155 6.30445,-3.15222 7.56533,-3.36237 17.33721,-3.36237 9.56173,0 11.13784,0.31522 17.33722,3.2573 8.40591,3.9928 13.97484,8.72114 18.49302,15.76109 12.71395,19.859 6.82982,46.44272 -12.92411,59.05161 -5.88413,3.78266 -14.71035,6.51458 -20.69957,6.51458 -9.14144,0 -15.0256,7.46025 -11.76829,15.02558 3.25729,7.98563 13.3444,8.93129 30.57654,2.94209 19.75391,-6.72475 34.3592,-21.85541 40.66363,-42.1347 3.57252,-11.6632 3.36237,-26.79387 -0.63044,-38.35201 -5.67399,-16.70677 -17.12705,-29.73595 -32.67801,-37.40634 -10.82262,-5.35878 -26.05835,-8.30085 -34.67443,-6.61967 z m 152.8827,1.05074 c -21.01481,5.46386 -36.98605,22.27569 -42.66006,44.55139 -2.20655,8.51098 -2.52177,27.73954 -0.52538,35.72515 4.30805,17.75753 16.39156,32.99325 31.6273,40.13828 9.14144,4.30804 14.39513,5.67401 25.21776,6.61967 15.86617,1.36596 33.93889,-5.04355 45.39197,-16.1814 7.14503,-7.03997 7.98563,-10.9277 3.36237,-15.55096 -3.78267,-3.78266 -8.40592,-2.837 -14.92052,2.94207 -2.73192,2.41671 -7.56532,5.674 -10.71754,7.14503 -5.25371,2.52177 -6.93488,2.73192 -18.91332,2.73192 -12.50381,0 -13.44947,-0.10504 -19.33362,-3.15222 -13.55455,-6.82979 -21.11988,-17.75749 -24.16702,-34.98962 l -0.52537,-3.36239 h 44.13109 c 48.33403,0 48.75433,0 51.27611,-6.19936 1.57611,-3.67758 0.21015,-14.81543 -3.04715,-23.95687 -9.56173,-27.31925 -39.1926,-43.60572 -66.19662,-36.46069 z m 21.43509,17.75751 c 13.3444,2.20656 25.84821,14.6053 27.63447,27.31924 l 0.63045,4.72834 h -73.86704 v -2.52177 c 0,-1.36597 1.68119,-5.77909 3.78266,-9.87697 5.56893,-11.34799 15.13066,-18.38794 27.00402,-20.17422 5.46386,-0.84058 7.03997,-0.73551 14.81544,0.52538 z m 116.42201,-17.33721 c -27.00402,7.2501 -44.65646,29.73593 -46.12749,58.84145 -2.4167,47.07314 39.82306,79.43595 83.63891,64.09515 8.19578,-2.94208 19.33362,-10.82262 25.00762,-17.75752 25.00761,-30.47145 17.44229,-79.43596 -15.3408,-98.66449 -13.65962,-7.98563 -32.25772,-10.61247 -47.17824,-6.51459 z m 25.11269,17.23213 c 12.08351,2.83701 21.75033,10.82263 27.84462,23.32643 3.36237,6.72474 3.88773,8.9313 4.41311,17.44229 0.21015,5.674 -0.10505,12.29367 -0.73553,15.7611 -2.83698,13.34441 -11.24291,24.58733 -23.32642,30.99683 -5.2537,2.73192 -6.51458,2.94207 -17.75751,2.94207 -11.76829,0 -12.29366,-0.10504 -18.59811,-3.5725 -8.40591,-4.51819 -15.34079,-11.97844 -19.54375,-20.90973 -2.94209,-6.19937 -3.36239,-8.30084 -3.67761,-18.17781 -0.63044,-16.70676 2.94208,-27.00402 12.60888,-36.67084 10.71756,-10.61246 24.37718,-14.60529 38.77232,-11.13784 z m 107.5958,-17.86258 c -14.71036,3.67758 -25.63806,12.60889 -29.00044,23.95688 -0.52536,1.89133 -1.05074,6.61965 -1.05074,10.5074 0,9.14144 2.94209,16.07632 9.45667,22.17061 6.30444,5.88415 13.02917,8.93129 30.99684,14.39515 24.27209,7.25011 29.1055,10.61247 29.84101,20.80464 0.52537,7.3552 -2.20655,11.97844 -9.24652,15.97125 -4.20296,2.31165 -5.88413,2.62687 -16.28646,2.62687 -10.9277,0 -11.97845,-0.21015 -18.38797,-3.36238 -4.09788,-1.9964 -9.2465,-5.77907 -12.60887,-9.14143 -6.51458,-6.61967 -10.92769,-8.19578 -15.23574,-5.46386 -6.61965,4.41312 -5.88413,10.19218 2.52178,18.59811 20.80466,20.80464 61.4683,21.85539 79.22582,1.99641 11.55812,-12.81904 10.92769,-33.09833 -1.47105,-44.65647 -6.30443,-5.88414 -12.0835,-8.51099 -29.84102,-13.55455 -23.64165,-6.72473 -30.47146,-11.97844 -30.26131,-23.0112 0.10505,-6.30444 2.31162,-9.6668 8.82622,-13.3444 4.09788,-2.31163 5.77907,-2.62686 15.13066,-2.62686 12.39874,0.10505 17.02198,1.78626 25.53299,9.35159 6.19935,5.46385 9.77187,6.19938 14.29006,2.62685 2.10148,-1.68117 2.73192,-3.04713 2.73192,-6.30443 0,-3.6776 -0.63044,-4.93848 -5.2537,-9.35159 -11.45306,-11.13785 -32.88816,-16.39155 -49.91015,-12.18859 z m 125.87865,0 c -7.98561,1.89133 -19.12345,7.56533 -25.63805,13.23932 -6.72473,5.67401 -14.07992,16.91692 -17.44228,26.26852 -3.67759,10.40232 -4.51818,29.21057 -1.99641,40.45348 5.88415,24.6924 23.53658,42.1347 47.17824,46.44273 19.22853,3.36236 44.23616,-2.62685 53.16745,-12.92411 4.72832,-5.35879 3.88773,-12.5038 -1.68119,-15.02559 -4.09789,-1.89132 -5.88414,-1.36595 -11.97843,3.04715 -7.88056,5.88414 -14.39514,7.6704 -27.52939,7.14504 -9.35159,-0.31524 -11.55815,-0.73554 -17.02199,-3.36238 -12.81904,-6.40951 -21.75032,-19.22853 -23.85182,-34.67442 -4.41309,-31.20698 18.49305,-56.84504 48.01883,-53.79789 9.56174,0.94566 13.55455,2.41671 19.64885,6.93488 6.51459,4.93848 10.29724,5.35876 13.97484,1.57611 1.99641,-1.89133 2.62685,-3.67759 2.62685,-6.93488 0,-3.88775 -0.63044,-5.04356 -4.72832,-8.9313 -6.72475,-6.51459 -17.96767,-9.87696 -34.14907,-10.5074 -8.0907,-0.21015 -14.18498,0.10505 -18.59811,1.05074 z M 39.236033,299.88124 c -5.989218,6.0943 -10.927697,22.06554 -10.927697,35.72517 0,14.92051 4.097886,27.21417 13.239326,39.29768 12.924103,17.23214 40.663645,29.31565 45.602122,20.06913 0.630445,-1.05075 1.050741,-4.51818 1.050741,-7.6704 0,-4.51817 -0.52537,-6.09428 -2.416703,-7.88056 -1.365962,-1.26088 -3.152219,-2.31162 -3.992812,-2.31162 -3.467442,0 -15.025584,-6.61965 -19.648841,-11.24293 -12.81903,-12.81902 -16.181398,-33.41352 -8.0907,-48.96447 3.782666,-7.3552 3.467445,-10.61248 -1.471036,-15.55096 -4.938478,-5.04356 -9.351588,-5.46385 -13.3444,-1.47104 z" id="path3" style="stroke-width:1.05074"/>
  </svg>