<?xml version="1.0" encoding="UTF-8" standalone="no"?>
<!DOCTYPE svg PUBLIC "-//W3C//DTD SVG 1.1//EN" "http://www.w3.org/Graphics/SVG/1.1/DTD/svg11.dtd">
<svg width="100%" height="100%" viewBox="0 0 193 50" version="1.1" xmlns="http://www.w3.org/2000/svg" xmlns:xlink="http://www.w3.org/1999/xlink" xml:space="preserve" xmlns:serif="http://www.serif.com/" style="fill-rule:evenodd;clip-rule:evenodd;stroke-linejoin:round;stroke-miterlimit:2;">
    <rect id="Artboard1" x="0" y="0" width="192.366" height="49.119" style="fill:none;"/>
    <g>
        <path d="M39,16.9C36,4.7 25.2,1.3 13.2,1.3L0.7,1.3L0.7,47.4L6.3,47.4L6.3,16.9L10,16.9L10,8.6L15.2,8.6C20.7,8.6 26.1,11.6 28.7,16.9L16.7,16.9L16.7,47.4L19.2,47.4C30,47.4 40.4,39.4 40.4,25.3C40.5,22.2 40,19.4 39,16.9" style="fill:white;fill-rule:nonzero;"/>
        <path d="M82.4,16.9L68.7,16.9L74,1.4L65.9,1.4L59.9,16.9L48,47.5L57.5,47.5L61.5,36.9L80.2,36.9L84.2,47.5L94.4,47.5L82.4,16.9Z" style="fill:white;fill-rule:nonzero;"/>
        <path d="M139.7,1.4L139.7,29.7L133.2,29.7L118.8,1.4L107.5,1.4L107.5,47.5L116.3,47.5L116.3,16.9L118.4,16.9L134.1,47.5L145.4,47.5L145.4,29.7L150.7,29.7L150.7,1.4L139.7,1.4" style="fill:white;fill-rule:nonzero;"/>
        <path d="M175.4,14.3C175.4,9.3 179.5,7.9 182.7,7.9C185.8,7.9 188.9,8.6 191.8,9.8L191.8,2C188.7,1.1 185.4,0.7 181.9,0.7C173.8,0.7 164.8,4.5 164.8,14.8C164.8,21.9 169.1,25.8 173.5,28.6C173.7,28.7 175.2,26.3 175.4,26.4C180.6,28.6 186,30.7 186,35.2C186,39.4 181.3,41.1 177.8,41.1C176.9,41.1 175.9,41 175,40.9L175,48.2C176,48.3 177.1,48.3 178.3,48.3C183.6,48.3 188.5,47 191.7,44.1L191.7,25.2C185.9,19.9 175.4,20.1 175.4,14.3" style="fill:white;fill-rule:nonzero;"/>
    </g>
</svg>
