<?xml version="1.0" encoding="UTF-8" standalone="no"?><!DOCTYPE svg PUBLIC "-//W3C//DTD SVG 1.1//EN" "http://www.w3.org/Graphics/SVG/1.1/DTD/svg11.dtd"><svg width="100%" height="100%" viewBox="0 0 193 50" version="1.1" style="fill-rule:evenodd;clip-rule:evenodd;stroke-linejoin:round;stroke-miterlimit:2;"><rect id="Artboard1" x="0" y="0" width="192.366" height="49.119" style="fill:none;"/><g><path d="M39,16.9c-3,-12.2 -13.8,-15.6 -25.8,-15.6l-12.5,-0l0,46.1l5.6,-0l0,-30.5l3.7,-0l0,-8.3l5.2,-0c5.5,-0 10.9,3 13.5,8.3l-12,-0l0,30.5l2.5,-0c10.8,-0 21.2,-8 21.2,-22.1c0.1,-3.1 -0.4,-5.9 -1.4,-8.4" style="fill:#fff;fill-rule:nonzero;"/><path d="M82.4,16.9l-13.7,-0l5.3,-15.5l-8.1,-0l-6,15.5l-11.9,30.6l9.5,-0l4,-10.6l18.7,-0l4,10.6l10.2,-0l-12,-30.6Z" style="fill:#fff;fill-rule:nonzero;"/><path d="M139.7,1.4l-0,28.3l-6.5,-0l-14.4,-28.3l-11.3,-0l-0,46.1l8.8,-0l-0,-30.6l2.1,-0l15.7,30.6l11.3,-0l0,-17.8l5.3,-0l-0,-28.3l-11,-0" style="fill:#fff;fill-rule:nonzero;"/><path d="M175.4,14.3c0,-5 4.1,-6.4 7.3,-6.4c3.1,-0 6.2,0.7 9.1,1.9l0,-7.8c-3.1,-0.9 -6.4,-1.3 -9.9,-1.3c-8.1,-0 -17.1,3.8 -17.1,14.1c0,7.1 4.3,11 8.7,13.8c0.2,0.1 1.7,-2.3 1.9,-2.2c5.2,2.2 10.6,4.3 10.6,8.8c0,4.2 -4.7,5.9 -8.2,5.9c-0.9,-0 -1.9,-0.1 -2.8,-0.2l0,7.3c1,0.1 2.1,0.1 3.3,0.1c5.3,-0 10.2,-1.3 13.4,-4.2l0,-18.9c-5.8,-5.3 -16.3,-5.1 -16.3,-10.9" style="fill:#fff;fill-rule:nonzero;"/></g></svg>