<svg width="173" height="33" viewBox="0 0 173 33" fill="none" xmlns="http://www.w3.org/2000/svg">
<path d="M38.6218 11.7798C39.0954 11.3162 39.6297 10.9739 40.2252 10.7514C40.8195 10.53 41.4198 10.4188 42.0245 10.4188C42.7704 10.4188 43.4808 10.5808 44.1565 10.9029C44.8321 11.2255 45.4063 11.6843 45.8805 12.2789C46.3538 12.8736 46.6214 13.5845 46.6815 14.4114V14.6528H37.1809C37.2526 14.2735 37.3461 13.9174 37.4723 13.5946C37.765 12.8491 38.1481 12.2435 38.6218 11.7798ZM48.8897 16.422C49.1316 16.2107 49.2522 15.9434 49.2522 15.6208C49.2324 14.4715 49.0204 13.4434 48.6175 12.5362C48.214 11.6287 47.6802 10.8421 47.0146 10.1768C46.3494 9.51163 45.5829 9.00806 44.7157 8.66457C43.8484 8.32222 42.9514 8.15047 42.0245 8.15047C40.7739 8.15047 39.5897 8.47827 38.471 9.13346C37.3518 9.78896 36.4442 10.7364 35.7488 11.9766C35.0532 13.2163 34.7053 14.7137 34.7053 16.4679C34.7053 18.0399 35.0384 19.4268 35.7036 20.6262C36.3692 21.8257 37.3062 22.7687 38.5161 23.4541C39.7261 24.1394 41.1472 24.4822 42.7805 24.4822C43.8694 24.4822 44.8922 24.2504 45.8502 23.7867C46.8077 23.3226 47.579 22.7788 48.164 22.153C48.4861 21.8708 48.6478 21.5588 48.6478 21.2156C48.6478 20.9339 48.547 20.6915 48.3451 20.4895C48.1434 20.2888 47.9016 20.1872 47.6193 20.1872C47.3568 20.1872 47.0952 20.2783 46.8331 20.4597C46.5706 20.7423 46.2534 21.0193 45.8805 21.2915C45.5071 21.564 45.0588 21.7902 44.5343 21.972C44.0102 22.153 43.3953 22.2437 42.6898 22.2437C41.56 22.2437 40.5727 21.9869 39.7261 21.4725C38.879 20.9584 38.2181 20.2581 37.7448 19.3707C37.3332 18.6007 37.101 17.7234 37.047 16.7396H48.0427C48.3648 16.7396 48.6478 16.6341 48.8897 16.422Z" fill="black"/>
<path d="M65.2814 16.3164C65.2814 15.1471 65.0443 14.1239 64.5711 13.2466C64.0965 12.3697 63.4523 11.6738 62.6355 11.1598C61.8182 10.6457 60.9063 10.3885 59.8983 10.3885C58.8702 10.3885 57.9474 10.6457 57.131 11.1598C56.3145 11.6738 55.6642 12.3697 55.18 13.2466C54.6962 14.1239 54.4547 15.1471 54.4547 16.3164C54.4547 17.4657 54.6962 18.4838 55.18 19.3707C55.6642 20.2581 56.3145 20.9588 57.131 21.4729C57.9474 21.9869 58.8702 22.2441 59.8983 22.2441C60.9063 22.2441 61.8182 21.9869 62.6355 21.4729C63.4523 20.9588 64.0965 20.2581 64.5711 19.3707C65.0443 18.4838 65.2814 17.4657 65.2814 16.3164ZM67.7316 16.3164C67.7316 17.8891 67.3839 19.2909 66.6877 20.5202C65.9922 21.7499 65.0549 22.7183 63.8751 23.4238C62.696 24.1298 61.3699 24.4822 59.8983 24.4822C58.4263 24.4822 57.0955 24.1298 55.9058 23.4238C54.7163 22.7183 53.7741 21.7499 53.0787 20.5202C52.3828 19.2909 52.0349 17.8891 52.0349 16.3164C52.0349 14.7435 52.3828 13.3425 53.0787 12.1125C53.7741 10.8828 54.7163 9.91519 55.9058 9.20922C57.0955 8.50366 58.4263 8.15047 59.8983 8.15047C61.3699 8.15047 62.696 8.50366 63.8751 9.20922C65.0549 9.91519 65.9922 10.8828 66.6877 12.1125C67.3839 13.3425 67.7316 14.7435 67.7316 16.3164Z" fill="black"/>
<path d="M70.4533 21.6999C70.2915 21.4378 70.2158 21.1608 70.2263 20.8677C70.2359 20.5758 70.4025 20.319 70.7253 20.0969C70.9471 19.9557 71.1939 19.8957 71.466 19.9155C71.7381 19.9356 71.9849 20.0663 72.2075 20.3085C72.7715 20.9742 73.417 21.5032 74.1427 21.8962C74.8684 22.2893 75.7554 22.4861 76.804 22.4861C77.2676 22.4664 77.7466 22.3852 78.2409 22.2441C78.7344 22.103 79.148 21.8563 79.4807 21.5032C79.8132 21.1507 79.9798 20.6818 79.9798 20.0969C79.9798 19.5325 79.8084 19.0833 79.4657 18.751C79.1226 18.4185 78.6739 18.1463 78.1199 17.9346C77.5648 17.7226 76.9753 17.5368 76.3501 17.375C75.6852 17.1933 75.0297 16.992 74.3846 16.7699C73.7391 16.5486 73.1597 16.2607 72.6457 15.908C72.1316 15.5559 71.7184 15.1117 71.4055 14.5771C71.0927 14.0432 70.9366 13.3825 70.9366 12.5963C70.9366 11.6892 71.1838 10.9025 71.6781 10.2373C72.1715 9.5717 72.832 9.0576 73.6592 8.69522C74.4853 8.33192 75.4026 8.15047 76.4109 8.15047C76.9753 8.15047 77.5648 8.21622 78.1804 8.3473C78.7948 8.47827 79.3944 8.70049 79.9798 9.0125C80.564 9.32533 81.0784 9.75397 81.5219 10.2978C81.7038 10.4998 81.8041 10.7514 81.8247 11.0537C81.8448 11.3565 81.7134 11.6291 81.4316 11.8705C81.2095 12.0323 80.9623 12.1076 80.6905 12.0972C80.4185 12.0875 80.1914 11.9915 80.0099 11.8105C79.5661 11.2859 79.0271 10.8876 78.3917 10.6155C77.7566 10.343 77.0559 10.2071 76.29 10.2071C75.8258 10.2071 75.3626 10.2829 74.899 10.434C74.435 10.5852 74.0467 10.8223 73.7347 11.1449C73.4217 11.4674 73.2658 11.9214 73.2658 12.5056C73.2855 13.0502 73.4669 13.4942 73.81 13.8364C74.1527 14.1795 74.6164 14.4561 75.2014 14.6686C75.786 14.8799 76.4307 15.0867 77.1371 15.2883C77.7821 15.4495 78.4017 15.6358 78.9964 15.8479C79.5911 16.0591 80.1309 16.3365 80.6148 16.6792C81.0985 17.0227 81.4815 17.4609 81.7642 17.9947C82.0464 18.5293 82.1875 19.2002 82.1875 20.0062C82.1875 20.9339 81.925 21.735 81.4013 22.4103C80.8768 23.0859 80.1862 23.6 79.3295 23.9528C78.4723 24.3052 77.5499 24.4822 76.5621 24.4822C75.4534 24.4822 74.3544 24.2749 73.2658 23.8621C72.1772 23.4492 71.2394 22.728 70.4533 21.6999Z" fill="black"/>
<path d="M92.6214 8.15047C93.6701 8.15047 94.6072 8.26184 95.434 8.48354C96.2607 8.70565 96.9161 9.00765 97.4001 9.39067C97.8842 9.7741 98.1257 10.2071 98.1257 10.6913C98.1257 10.9739 98.0349 11.2356 97.8543 11.4775C97.6716 11.7194 97.4198 11.8403 97.0967 11.8403C96.8356 11.8403 96.6188 11.7851 96.4475 11.6738C96.2751 11.5634 96.1152 11.4319 95.9634 11.2808C95.8117 11.1296 95.6053 10.9836 95.3431 10.8424C95.1016 10.7212 94.7486 10.6155 94.2852 10.5248C93.8208 10.434 93.3573 10.3885 92.8939 10.3885C91.7844 10.3885 90.8121 10.651 89.9751 11.1751C89.1381 11.6992 88.4775 12.4052 87.9945 13.2922C87.5102 14.1795 87.2684 15.1874 87.2684 16.3164C87.2684 17.446 87.5002 18.454 87.9638 19.3409C88.428 20.2279 89.073 20.9339 89.8997 21.458C90.7265 21.9821 91.6832 22.2441 92.7721 22.2441C93.4781 22.2441 94.0375 22.1837 94.4504 22.0627C94.8642 21.9418 95.2224 21.8006 95.5248 21.639C95.8675 21.4378 96.1348 21.2359 96.3267 21.0343C96.5177 20.833 96.784 20.7319 97.1277 20.7319C97.4703 20.7319 97.7376 20.8427 97.9296 21.0645C98.1206 21.2866 98.2166 21.5588 98.2166 21.8813C98.2166 22.2647 97.9647 22.6578 97.46 23.0605C96.9563 23.4642 96.27 23.802 95.404 24.0738C94.536 24.3458 93.5689 24.4822 92.5007 24.4822C90.968 24.4822 89.6273 24.1246 88.4775 23.4085C87.3289 22.6929 86.4366 21.7148 85.8012 20.4751C85.1663 19.2349 84.8489 17.8488 84.8489 16.3164C84.8489 14.7847 85.1763 13.4026 85.8319 12.1729C86.487 10.9433 87.3993 9.96556 88.5693 9.23946C89.7377 8.51378 91.0888 8.15047 92.6214 8.15047Z" fill="black"/>
<path d="M12.5846 9.45951C11.261 8.60316 9.72728 8.15037 8.15051 8.15037C6.5721 8.15037 5.03806 8.60316 3.71406 9.46075C3.44396 9.63569 3.26974 9.92118 3.23547 10.2437C3.20038 10.5731 3.31494 10.896 3.54872 11.1299L3.99222 11.5733C4.20225 11.7834 4.47845 11.8922 4.7566 11.8922C4.94971 11.8922 5.14365 11.8399 5.31746 11.733C6.16895 11.2065 7.14905 10.9279 8.15051 10.9279C9.15084 10.9279 10.1301 11.2061 10.9816 11.7314C11.4057 11.9935 11.9505 11.9281 12.3068 11.5722L12.7499 11.1287C12.9841 10.8944 13.0983 10.5714 13.0632 10.2416C13.0289 9.91911 12.8547 9.63404 12.5846 9.45951Z" fill="#048298"/>
<path d="M6.89423 21.6506C4.42159 21.0656 2.69444 18.8829 2.69444 16.3421C2.69444 15.335 2.97425 14.3484 3.50363 13.4913C3.75515 13.0832 3.6923 12.5595 3.34953 12.2177L2.90613 11.7738C2.68113 11.5483 2.37026 11.4396 2.0534 11.4726C1.74252 11.5056 1.46881 11.6729 1.30109 11.9326C0.44959 13.249 0 14.7737 0 16.3421C0 20.154 2.70415 23.5036 6.42937 24.3075C6.50079 24.3224 6.57211 24.3301 6.64353 24.3301C6.87328 24.3301 7.09911 24.2511 7.28417 24.1019C7.53249 23.9015 7.67482 23.6032 7.67482 23.2851V22.6658C7.67482 22.1844 7.3462 21.7574 6.89423 21.6506Z" fill="#EB5F84"/>
<path d="M21.7564 8.19201C17.2622 8.19201 13.6059 11.8484 13.6059 16.3425L13.6104 16.3784L13.6055 16.4187C13.57 18.9756 11.7239 21.1935 9.21614 21.6922C8.8743 21.7599 8.62598 22.0622 8.62598 22.4103V23.6544C8.62598 23.8721 8.72103 24.0782 8.88762 24.2197C9.05007 24.3576 9.2629 24.4176 9.47097 24.3829C13.4285 23.7358 16.3007 20.3537 16.3007 16.3421C16.3007 13.334 18.7484 10.8868 21.7564 10.8868C24.7649 10.8868 27.2121 13.334 27.2121 16.3425C27.2121 19.3505 24.7649 21.7982 21.7564 21.7982C21.0138 21.7982 20.4094 22.4021 20.4094 23.1456C20.4094 23.8882 21.0138 24.4926 21.7564 24.4926C26.2509 24.4926 29.9073 20.8366 29.9073 16.3425C29.9073 11.8484 26.2509 8.19201 21.7564 8.19201Z" fill="#048298"/>
<path d="M108.057 32.6021H108.406V5.34058e-05H108.057V32.6021Z" fill="black"/>
<path d="M127.238 15.0261H120.347V9.90466H128.242V8.19031H118.25V24.0894H128.351V22.3751H120.347V16.7404H127.238V15.0261ZM136.032 24.0894C137.459 24.0748 138.71 23.7656 139.783 23.1613C140.857 22.5569 141.683 21.6909 142.262 20.5624C142.841 19.434 143.13 18.12 143.13 16.6202V15.6046C143.123 14.1415 142.83 12.8458 142.251 11.7173C141.673 10.5892 140.851 9.71919 139.789 9.10755C138.726 8.49592 137.503 8.19031 136.12 8.19031H131.631V24.0894H136.032ZM136.175 9.90466C137.732 9.91952 138.936 10.4275 139.783 11.4294C140.631 12.4313 141.056 13.8355 141.056 15.6425V16.5714C141.056 18.4296 140.606 19.8613 139.707 20.8668C138.808 21.8724 137.551 22.3751 135.934 22.3751H133.729V9.90466H136.175ZM155.954 15.0261H149.065V9.90466H156.96V8.19031H146.968V24.0894H157.069V22.3751H149.065V16.7404H155.954V15.0261ZM172.568 8.19031H170.482V20.4968L162.457 8.19031H160.349V24.0894H162.457V11.8374L170.461 24.0894H172.568V8.19031Z" fill="#048298"/>
</svg>